<svg width="495" height="45" viewBox="0 0 495 45" fill="none" xmlns="http://www.w3.org/2000/svg">
<path d="M16.6447 29.32C15.6527 29.32 14.778 29.08 14.0207 28.6C13.274 28.12 12.698 27.4693 12.2927 26.648C11.8874 25.816 11.6847 24.8933 11.6847 23.88C11.6847 22.8347 11.9034 21.8693 12.3407 20.984C12.7887 20.0987 13.3914 19.4 14.1487 18.888C14.9167 18.376 15.7487 18.12 16.6447 18.12C17.498 18.12 18.2447 18.2427 18.8847 18.488C19.5354 18.7227 20.0154 19.0267 20.3247 19.4C20.506 19.624 20.618 19.9227 20.6607 20.296C20.7034 20.6587 20.7247 21.16 20.7247 21.8H20.4047C20.202 20.7653 19.8287 20.0027 19.2847 19.512C18.7407 19.0107 18.0207 18.76 17.1247 18.76C15.9727 18.76 15.0447 19.1653 14.3407 19.976C13.6367 20.7867 13.2847 22.088 13.2847 23.88C13.2847 24.7227 13.418 25.5067 13.6847 26.232C13.962 26.9573 14.3887 27.5493 14.9647 28.008C15.5407 28.456 16.2607 28.68 17.1247 28.68C17.9034 28.68 18.5807 28.4933 19.1567 28.12C19.7434 27.7467 20.266 27.1867 20.7247 26.44L21.0447 26.68C20.554 27.64 19.946 28.3227 19.2207 28.728C18.506 29.1227 17.6474 29.32 16.6447 29.32ZM26.0213 29.16C25.296 29.16 24.6667 28.9893 24.1333 28.648C23.6 28.296 23.1947 27.8213 22.9173 27.224C22.64 26.6267 22.5013 25.9653 22.5013 25.24C22.5013 24.5147 22.64 23.8533 22.9173 23.256C23.1947 22.6587 23.6 22.1893 24.1333 21.848C24.6667 21.496 25.296 21.32 26.0213 21.32C26.7467 21.32 27.376 21.496 27.9093 21.848C28.4427 22.1893 28.848 22.6587 29.1253 23.256C29.4027 23.8533 29.5413 24.5147 29.5413 25.24C29.5413 25.9653 29.4027 26.6267 29.1253 27.224C28.848 27.8213 28.4427 28.296 27.9093 28.648C27.376 28.9893 26.7467 29.16 26.0213 29.16ZM26.0213 28.52C26.416 28.52 26.7627 28.376 27.0613 28.088C27.3707 27.8 27.6053 27.4053 27.7653 26.904C27.936 26.4027 28.0213 25.848 28.0213 25.24C28.0213 24.632 27.936 24.0773 27.7653 23.576C27.6053 23.0747 27.3707 22.68 27.0613 22.392C26.7627 22.104 26.416 21.96 26.0213 21.96C25.6267 21.96 25.2747 22.104 24.9653 22.392C24.6667 22.68 24.432 23.0747 24.2613 23.576C24.1013 24.0773 24.0213 24.632 24.0213 25.24C24.0213 25.848 24.1013 26.4027 24.2613 26.904C24.432 27.4053 24.6667 27.8 24.9653 28.088C25.2747 28.376 25.6267 28.52 26.0213 28.52ZM34.3137 29.16C33.5137 29.16 32.8577 28.9467 32.3457 28.52C31.8444 28.0933 31.5937 27.3467 31.5937 26.28V23.4C31.5937 22.856 31.519 22.456 31.3697 22.2C31.2204 21.9333 30.9217 21.8 30.4737 21.8H30.3137V21.48H31.5937C31.9884 21.48 32.2817 21.5333 32.4737 21.64C32.6764 21.736 32.8204 21.9173 32.9057 22.184C32.991 22.4507 33.0337 22.856 33.0337 23.4V26.28C33.0337 27.0267 33.199 27.576 33.5297 27.928C33.871 28.2693 34.2924 28.44 34.7937 28.44C35.359 28.44 35.8924 28.1573 36.3937 27.592V21.48H37.8337V29H37.0337L36.4737 28.36H36.3937C36.1697 28.584 35.8764 28.776 35.5137 28.936C35.1617 29.0853 34.7617 29.16 34.3137 29.16ZM40.4282 23.4C40.4282 22.856 40.3535 22.456 40.2042 22.2C40.0549 21.9333 39.7562 21.8 39.3082 21.8H39.1482V21.48H40.4282C40.8335 21.48 41.1375 21.5387 41.3402 21.656C41.5535 21.7627 41.7029 21.944 41.7882 22.2H41.8682C42.0602 21.9547 42.3162 21.7467 42.6362 21.576C42.9669 21.4053 43.3509 21.32 43.7882 21.32C44.2149 21.32 44.5349 21.4 44.7482 21.56C44.9295 21.6987 45.1162 21.9387 45.3082 22.28L44.6682 22.76C44.5509 22.6 44.3802 22.4827 44.1562 22.408C43.9322 22.3227 43.6762 22.28 43.3882 22.28C43.0682 22.28 42.7749 22.3547 42.5082 22.504C42.2415 22.6427 42.0282 22.8347 41.8682 23.08V29H40.4282V23.4ZM49.3316 29.16C48.1049 29.16 47.2783 28.9467 46.8516 28.52C46.6703 28.3387 46.5583 28.136 46.5156 27.912C46.4729 27.6773 46.4516 27.32 46.4516 26.84H46.7716C46.8676 27.3733 47.0969 27.7893 47.4596 28.088C47.8329 28.376 48.3503 28.52 49.0116 28.52C49.5983 28.52 50.0356 28.4187 50.3236 28.216C50.6223 28.0133 50.7716 27.7413 50.7716 27.4C50.7716 27.0907 50.6543 26.824 50.4196 26.6C50.1956 26.376 49.8329 26.1627 49.3316 25.96L48.3716 25.56C47.7316 25.304 47.2516 25.0053 46.9316 24.664C46.6116 24.3227 46.4516 23.9013 46.4516 23.4C46.4516 22.7493 46.6969 22.2427 47.1876 21.88C47.6783 21.5067 48.3129 21.32 49.0916 21.32C50.2649 21.32 51.0649 21.5333 51.4916 21.96C51.6729 22.1413 51.7849 22.344 51.8276 22.568C51.8703 22.792 51.8916 23.1493 51.8916 23.64H51.5716C51.4863 23.1067 51.2623 22.696 50.8996 22.408C50.5369 22.1093 50.0409 21.96 49.4116 21.96C48.9103 21.96 48.5156 22.0667 48.2276 22.28C47.9503 22.4827 47.8116 22.7493 47.8116 23.08C47.8116 23.6347 48.2383 24.088 49.0916 24.44L50.0516 24.84C50.7769 25.1387 51.3049 25.4587 51.6356 25.8C51.9663 26.1307 52.1316 26.5573 52.1316 27.08C52.1316 27.7307 51.8703 28.2427 51.3476 28.616C50.8249 28.9787 50.1529 29.16 49.3316 29.16ZM57.0482 29.16C56.3229 29.16 55.7095 28.9893 55.2082 28.648C54.7069 28.296 54.3282 27.8267 54.0722 27.24C53.8162 26.6427 53.6882 25.976 53.6882 25.24C53.6882 24.5147 53.8162 23.8533 54.0722 23.256C54.3282 22.6587 54.6962 22.1893 55.1762 21.848C55.6669 21.496 56.2375 21.32 56.8882 21.32C57.9655 21.32 58.7655 21.624 59.2882 22.232C59.8215 22.8293 60.0882 23.6987 60.0882 24.84L60.0562 25.48H55.2082C55.2082 26.376 55.4002 27.1067 55.7842 27.672C56.1682 28.2373 56.6962 28.52 57.3682 28.52C57.8695 28.52 58.2909 28.4133 58.6322 28.2C58.9842 27.9867 59.3095 27.6667 59.6082 27.24L59.9282 27.48C59.5762 28.0667 59.1655 28.4933 58.6962 28.76C58.2269 29.0267 57.6775 29.16 57.0482 29.16ZM58.5682 24.84C58.5682 23.9013 58.4295 23.1867 58.1522 22.696C57.8749 22.2053 57.4535 21.96 56.8882 21.96C56.5682 21.96 56.2802 22.088 56.0242 22.344C55.7682 22.5893 55.5655 22.9307 55.4162 23.368C55.2775 23.8053 55.2082 24.296 55.2082 24.84H58.5682ZM64.6047 29.16C63.378 29.16 62.5514 28.9467 62.1247 28.52C61.9434 28.3387 61.8314 28.136 61.7887 27.912C61.746 27.6773 61.7247 27.32 61.7247 26.84H62.0447C62.1407 27.3733 62.37 27.7893 62.7327 28.088C63.106 28.376 63.6234 28.52 64.2847 28.52C64.8714 28.52 65.3087 28.4187 65.5967 28.216C65.8954 28.0133 66.0447 27.7413 66.0447 27.4C66.0447 27.0907 65.9274 26.824 65.6927 26.6C65.4687 26.376 65.106 26.1627 64.6047 25.96L63.6447 25.56C63.0047 25.304 62.5247 25.0053 62.2047 24.664C61.8847 24.3227 61.7247 23.9013 61.7247 23.4C61.7247 22.7493 61.97 22.2427 62.4607 21.88C62.9514 21.5067 63.586 21.32 64.3647 21.32C65.538 21.32 66.338 21.5333 66.7647 21.96C66.946 22.1413 67.058 22.344 67.1007 22.568C67.1434 22.792 67.1647 23.1493 67.1647 23.64H66.8447C66.7594 23.1067 66.5354 22.696 66.1727 22.408C65.81 22.1093 65.314 21.96 64.6847 21.96C64.1834 21.96 63.7887 22.0667 63.5007 22.28C63.2234 22.4827 63.0847 22.7493 63.0847 23.08C63.0847 23.6347 63.5114 24.088 64.3647 24.44L65.3247 24.84C66.05 25.1387 66.578 25.4587 66.9087 25.8C67.2394 26.1307 67.4047 26.5573 67.4047 27.08C67.4047 27.7307 67.1434 28.2427 66.6207 28.616C66.098 28.9787 65.426 29.16 64.6047 29.16Z" fill="#4F4F4F"/>
<g clip-path="url(#clip0_587_907)">
<path d="M85.9812 23.379L89.6937 19.6665L90.7542 20.727L85.9812 25.5L81.2082 20.727L82.2687 19.6665L85.9812 23.379Z" fill="#4F4F4F"/>
</g>
<path d="M134.933 29.08C134.421 29.08 133.914 28.9413 133.413 28.664C132.911 28.376 132.511 27.8213 132.213 27L131.813 25.96H127.333L126.053 29H125.333L129.813 18.44H130.293L133.813 27C134.079 27.6187 134.33 28.0453 134.565 28.28C134.799 28.504 135.135 28.6373 135.573 28.68V29C135.381 29.0533 135.167 29.08 134.933 29.08ZM131.493 25.32L129.573 20.68L127.573 25.32H131.493ZM139.537 29.16C138.769 29.16 138.118 28.9893 137.585 28.648C137.062 28.296 136.668 27.8267 136.401 27.24C136.145 26.6427 136.017 25.976 136.017 25.24C136.017 24.504 136.145 23.8427 136.401 23.256C136.668 22.6587 137.062 22.1893 137.585 21.848C138.118 21.496 138.769 21.32 139.537 21.32C140.71 21.32 141.484 21.5067 141.857 21.88C142.038 22.0613 142.15 22.2853 142.193 22.552C142.236 22.808 142.257 23.2773 142.257 23.96H141.937C141.894 23.2987 141.686 22.8027 141.313 22.472C140.94 22.1307 140.454 21.96 139.857 21.96C139.089 21.96 138.508 22.264 138.113 22.872C137.729 23.48 137.537 24.2693 137.537 25.24C137.537 26.2107 137.729 27 138.113 27.608C138.508 28.216 139.089 28.52 139.857 28.52C140.401 28.52 140.849 28.4187 141.201 28.216C141.553 28.0027 141.878 27.6773 142.177 27.24L142.497 27.48C142.145 28.0773 141.729 28.5093 141.249 28.776C140.769 29.032 140.198 29.16 139.537 29.16ZM147.431 29.16C146.663 29.16 146.013 28.9893 145.479 28.648C144.957 28.296 144.562 27.8267 144.295 27.24C144.039 26.6427 143.911 25.976 143.911 25.24C143.911 24.504 144.039 23.8427 144.295 23.256C144.562 22.6587 144.957 22.1893 145.479 21.848C146.013 21.496 146.663 21.32 147.431 21.32C148.605 21.32 149.378 21.5067 149.751 21.88C149.933 22.0613 150.045 22.2853 150.087 22.552C150.13 22.808 150.151 23.2773 150.151 23.96H149.831C149.789 23.2987 149.581 22.8027 149.207 22.472C148.834 22.1307 148.349 21.96 147.751 21.96C146.983 21.96 146.402 22.264 146.007 22.872C145.623 23.48 145.431 24.2693 145.431 25.24C145.431 26.2107 145.623 27 146.007 27.608C146.402 28.216 146.983 28.52 147.751 28.52C148.295 28.52 148.743 28.4187 149.095 28.216C149.447 28.0027 149.773 27.6773 150.071 27.24L150.391 27.48C150.039 28.0773 149.623 28.5093 149.143 28.776C148.663 29.032 148.093 29.16 147.431 29.16ZM153.086 20.52C152.84 20.52 152.627 20.4187 152.446 20.216C152.275 20.0133 152.19 19.7733 152.19 19.496C152.19 19.272 152.254 19.096 152.382 18.968C152.52 18.84 152.702 18.776 152.926 18.776C153.171 18.776 153.379 18.8773 153.55 19.08C153.731 19.2827 153.822 19.5227 153.822 19.8C153.822 20.024 153.752 20.2 153.614 20.328C153.486 20.456 153.31 20.52 153.086 20.52ZM152.478 23.4C152.478 22.856 152.403 22.456 152.254 22.2C152.104 21.9333 151.806 21.8 151.358 21.8H151.038V21.48H152.478C152.872 21.48 153.166 21.5333 153.358 21.64C153.56 21.736 153.704 21.9173 153.79 22.184C153.875 22.4507 153.918 22.856 153.918 23.4V29H152.478V23.4ZM159.423 29.16C158.698 29.16 158.069 28.9893 157.535 28.648C157.002 28.296 156.597 27.8213 156.319 27.224C156.042 26.6267 155.903 25.9653 155.903 25.24C155.903 24.5147 156.042 23.8533 156.319 23.256C156.597 22.6587 157.002 22.1893 157.535 21.848C158.069 21.496 158.698 21.32 159.423 21.32C160.149 21.32 160.778 21.496 161.311 21.848C161.845 22.1893 162.25 22.6587 162.527 23.256C162.805 23.8533 162.943 24.5147 162.943 25.24C162.943 25.9653 162.805 26.6267 162.527 27.224C162.25 27.8213 161.845 28.296 161.311 28.648C160.778 28.9893 160.149 29.16 159.423 29.16ZM159.423 28.52C159.818 28.52 160.165 28.376 160.463 28.088C160.773 27.8 161.007 27.4053 161.167 26.904C161.338 26.4027 161.423 25.848 161.423 25.24C161.423 24.632 161.338 24.0773 161.167 23.576C161.007 23.0747 160.773 22.68 160.463 22.392C160.165 22.104 159.818 21.96 159.423 21.96C159.029 21.96 158.677 22.104 158.367 22.392C158.069 22.68 157.834 23.0747 157.663 23.576C157.503 24.0773 157.423 24.632 157.423 25.24C157.423 25.848 157.503 26.4027 157.663 26.904C157.834 27.4053 158.069 27.8 158.367 28.088C158.677 28.376 159.029 28.52 159.423 28.52ZM163.59 30.872C164.102 30.872 164.481 30.6 164.726 30.056C164.982 29.512 165.11 28.744 165.11 27.752V18.44H166.55V27.752C166.55 28.584 166.459 29.2453 166.278 29.736C166.107 30.2373 165.809 30.6053 165.382 30.84C164.955 31.0747 164.358 31.192 163.59 31.192V30.872ZM172.196 29.16C171.471 29.16 170.842 28.9893 170.308 28.648C169.775 28.296 169.37 27.8213 169.092 27.224C168.815 26.6267 168.676 25.9653 168.676 25.24C168.676 24.5147 168.815 23.8533 169.092 23.256C169.37 22.6587 169.775 22.1893 170.308 21.848C170.842 21.496 171.471 21.32 172.196 21.32C172.922 21.32 173.551 21.496 174.084 21.848C174.618 22.1893 175.023 22.6587 175.3 23.256C175.578 23.8533 175.716 24.5147 175.716 25.24C175.716 25.9653 175.578 26.6267 175.3 27.224C175.023 27.8213 174.618 28.296 174.084 28.648C173.551 28.9893 172.922 29.16 172.196 29.16ZM172.196 28.52C172.591 28.52 172.938 28.376 173.236 28.088C173.546 27.8 173.78 27.4053 173.94 26.904C174.111 26.4027 174.196 25.848 174.196 25.24C174.196 24.632 174.111 24.0773 173.94 23.576C173.78 23.0747 173.546 22.68 173.236 22.392C172.938 22.104 172.591 21.96 172.196 21.96C171.802 21.96 171.45 22.104 171.14 22.392C170.842 22.68 170.607 23.0747 170.436 23.576C170.276 24.0773 170.196 24.632 170.196 25.24C170.196 25.848 170.276 26.4027 170.436 26.904C170.607 27.4053 170.842 27.8 171.14 28.088C171.45 28.376 171.802 28.52 172.196 28.52ZM181.353 29.16C180.809 29.16 180.361 29.0747 180.009 28.904C179.657 28.7333 179.385 28.5253 179.193 28.28H179.113L178.553 29H177.753V20.36C177.753 19.816 177.678 19.416 177.529 19.16C177.379 18.8933 177.081 18.76 176.633 18.76H176.313V18.44H177.753C178.147 18.44 178.441 18.4933 178.633 18.6C178.835 18.696 178.979 18.8773 179.065 19.144C179.15 19.4107 179.193 19.816 179.193 20.36V21.8C179.502 21.6507 179.811 21.5333 180.121 21.448C180.43 21.3627 180.787 21.32 181.193 21.32C182.185 21.32 182.937 21.688 183.449 22.424C183.971 23.16 184.233 24.0987 184.233 25.24C184.233 26.3707 183.982 27.3093 183.481 28.056C182.979 28.792 182.27 29.16 181.353 29.16ZM180.873 28.52C181.481 28.52 181.939 28.2213 182.249 27.624C182.558 27.016 182.713 26.2213 182.713 25.24C182.713 24.248 182.547 23.4533 182.217 22.856C181.897 22.2587 181.395 21.96 180.713 21.96C180.489 21.96 180.259 22.0027 180.025 22.088C179.79 22.1733 179.513 22.2907 179.193 22.44V27.56C179.385 27.848 179.609 28.0827 179.865 28.264C180.131 28.4347 180.467 28.52 180.873 28.52ZM198.032 29.16C197.466 29.16 196.97 28.9947 196.544 28.664C196.128 28.3227 195.664 27.7147 195.152 26.84L193.552 24.12H192.432V29H190.992V20.36C190.992 19.816 190.917 19.416 190.768 19.16C190.618 18.8933 190.32 18.76 189.872 18.76H189.552V18.44H193.712C194.725 18.44 195.642 18.6427 196.464 19.048C197.296 19.4427 197.712 20.2 197.712 21.32C197.712 22.7387 196.858 23.6453 195.152 24.04L196.832 26.84C197.226 27.5013 197.578 27.9653 197.888 28.232C198.208 28.488 198.576 28.6373 198.992 28.68V29C198.896 29.0427 198.757 29.08 198.576 29.112C198.405 29.144 198.224 29.16 198.032 29.16ZM193.632 23.56C193.962 23.56 194.32 23.48 194.704 23.32C195.098 23.16 195.429 22.9093 195.696 22.568C195.973 22.2267 196.112 21.8107 196.112 21.32C196.112 20.7973 195.973 20.3653 195.696 20.024C195.429 19.672 195.098 19.416 194.704 19.256C194.32 19.0853 193.962 19 193.632 19C193.258 19 192.858 19.0533 192.432 19.16V23.4C192.858 23.5067 193.258 23.56 193.632 23.56ZM202.942 29.16C202.217 29.16 201.603 28.9893 201.102 28.648C200.601 28.296 200.222 27.8267 199.966 27.24C199.71 26.6427 199.582 25.976 199.582 25.24C199.582 24.5147 199.71 23.8533 199.966 23.256C200.222 22.6587 200.59 22.1893 201.07 21.848C201.561 21.496 202.131 21.32 202.782 21.32C203.859 21.32 204.659 21.624 205.182 22.232C205.715 22.8293 205.982 23.6987 205.982 24.84L205.95 25.48H201.102C201.102 26.376 201.294 27.1067 201.678 27.672C202.062 28.2373 202.59 28.52 203.262 28.52C203.763 28.52 204.185 28.4133 204.526 28.2C204.878 27.9867 205.203 27.6667 205.502 27.24L205.822 27.48C205.47 28.0667 205.059 28.4933 204.59 28.76C204.121 29.0267 203.571 29.16 202.942 29.16ZM204.462 24.84C204.462 23.9013 204.323 23.1867 204.046 22.696C203.769 22.2053 203.347 21.96 202.782 21.96C202.462 21.96 202.174 22.088 201.918 22.344C201.662 22.5893 201.459 22.9307 201.31 23.368C201.171 23.8053 201.102 24.296 201.102 24.84H204.462ZM208.34 23.32C208.084 22.7227 207.839 22.3067 207.604 22.072C207.37 21.8267 207.06 21.6933 206.676 21.672V21.352C206.73 21.352 206.804 21.3467 206.9 21.336C207.007 21.3253 207.114 21.32 207.22 21.32C207.786 21.32 208.298 21.464 208.756 21.752C209.215 22.0293 209.61 22.552 209.94 23.32L211.38 26.76L213.62 21.48H214.42L211.14 29.16H210.82L208.34 23.32ZM216.869 20.52C216.624 20.52 216.411 20.4187 216.229 20.216C216.059 20.0133 215.973 19.7733 215.973 19.496C215.973 19.272 216.037 19.096 216.165 18.968C216.304 18.84 216.485 18.776 216.709 18.776C216.955 18.776 217.163 18.8773 217.333 19.08C217.515 19.2827 217.605 19.5227 217.605 19.8C217.605 20.024 217.536 20.2 217.397 20.328C217.269 20.456 217.093 20.52 216.869 20.52ZM216.261 23.4C216.261 22.856 216.187 22.456 216.037 22.2C215.888 21.9333 215.589 21.8 215.141 21.8H214.821V21.48H216.261C216.656 21.48 216.949 21.5333 217.141 21.64C217.344 21.736 217.488 21.9173 217.573 22.184C217.659 22.4507 217.701 22.856 217.701 23.4V29H216.261V23.4ZM223.047 29.16C222.322 29.16 221.708 28.9893 221.207 28.648C220.706 28.296 220.327 27.8267 220.071 27.24C219.815 26.6427 219.687 25.976 219.687 25.24C219.687 24.5147 219.815 23.8533 220.071 23.256C220.327 22.6587 220.695 22.1893 221.175 21.848C221.666 21.496 222.236 21.32 222.887 21.32C223.964 21.32 224.764 21.624 225.287 22.232C225.82 22.8293 226.087 23.6987 226.087 24.84L226.055 25.48H221.207C221.207 26.376 221.399 27.1067 221.783 27.672C222.167 28.2373 222.695 28.52 223.367 28.52C223.868 28.52 224.29 28.4133 224.631 28.2C224.983 27.9867 225.308 27.6667 225.607 27.24L225.927 27.48C225.575 28.0667 225.164 28.4933 224.695 28.76C224.226 29.0267 223.676 29.16 223.047 29.16ZM224.567 24.84C224.567 23.9013 224.428 23.1867 224.151 22.696C223.874 22.2053 223.452 21.96 222.887 21.96C222.567 21.96 222.279 22.088 222.023 22.344C221.767 22.5893 221.564 22.9307 221.415 23.368C221.276 23.8053 221.207 24.296 221.207 24.84H224.567ZM228.461 23.32C228.216 22.7227 227.971 22.3067 227.725 22.072C227.491 21.8267 227.176 21.6933 226.781 21.672V21.352C226.835 21.352 226.915 21.3467 227.021 21.336C227.128 21.3253 227.235 21.32 227.341 21.32C227.917 21.32 228.424 21.4693 228.861 21.768C229.309 22.056 229.683 22.5733 229.981 23.32L231.341 26.68L232.701 23.24C232.445 22.6747 232.2 22.28 231.965 22.056C231.741 21.8213 231.453 21.6933 231.101 21.672V21.352C231.155 21.352 231.235 21.3467 231.341 21.336C231.448 21.3253 231.555 21.32 231.661 21.32C232.237 21.32 232.744 21.4693 233.181 21.768C233.629 22.056 234.003 22.5733 234.301 23.32L235.661 26.68L237.741 21.48H238.541L235.421 29.16H235.101L233.101 24.2L231.101 29.16H230.781L228.461 23.32ZM242.67 29.16C241.443 29.16 240.616 28.9467 240.19 28.52C240.008 28.3387 239.896 28.136 239.854 27.912C239.811 27.6773 239.79 27.32 239.79 26.84H240.11C240.206 27.3733 240.435 27.7893 240.798 28.088C241.171 28.376 241.688 28.52 242.35 28.52C242.936 28.52 243.374 28.4187 243.662 28.216C243.96 28.0133 244.11 27.7413 244.11 27.4C244.11 27.0907 243.992 26.824 243.758 26.6C243.534 26.376 243.171 26.1627 242.67 25.96L241.71 25.56C241.07 25.304 240.59 25.0053 240.27 24.664C239.95 24.3227 239.79 23.9013 239.79 23.4C239.79 22.7493 240.035 22.2427 240.526 21.88C241.016 21.5067 241.651 21.32 242.43 21.32C243.603 21.32 244.403 21.5333 244.83 21.96C245.011 22.1413 245.123 22.344 245.166 22.568C245.208 22.792 245.23 23.1493 245.23 23.64H244.91C244.824 23.1067 244.6 22.696 244.238 22.408C243.875 22.1093 243.379 21.96 242.75 21.96C242.248 21.96 241.854 22.0667 241.566 22.28C241.288 22.4827 241.15 22.7493 241.15 23.08C241.15 23.6347 241.576 24.088 242.43 24.44L243.39 24.84C244.115 25.1387 244.643 25.4587 244.974 25.8C245.304 26.1307 245.47 26.5573 245.47 27.08C245.47 27.7307 245.208 28.2427 244.686 28.616C244.163 28.9787 243.491 29.16 242.67 29.16Z" fill="#4F4F4F"/>
<path d="M281.493 29.272C280.906 29.272 280.33 29.192 279.765 29.032C279.199 28.872 278.735 28.6427 278.373 28.344C278.021 28.0453 277.845 27.704 277.845 27.32V25.608H278.133C278.314 26.6747 278.666 27.448 279.189 27.928C279.711 28.3973 280.431 28.632 281.349 28.632C281.925 28.632 282.415 28.488 282.821 28.2C283.237 27.912 283.445 27.512 283.445 27C283.445 26.552 283.306 26.1627 283.029 25.832C282.751 25.5013 282.303 25.1547 281.685 24.792L279.717 23.624C279.034 23.2187 278.549 22.808 278.261 22.392C277.983 21.976 277.845 21.4693 277.845 20.872C277.845 20.0507 278.127 19.3947 278.693 18.904C279.269 18.4027 280.021 18.152 280.949 18.152C281.493 18.152 282.031 18.232 282.565 18.392C283.098 18.5413 283.535 18.7653 283.877 19.064C284.229 19.352 284.405 19.688 284.405 20.072V21.784H284.117C283.935 20.7173 283.589 19.9547 283.077 19.496C282.575 19.0267 281.866 18.792 280.949 18.792C280.458 18.792 280.026 18.9413 279.653 19.24C279.279 19.5387 279.093 19.928 279.093 20.408C279.093 20.8453 279.226 21.208 279.493 21.496C279.77 21.784 280.229 22.12 280.869 22.504L282.837 23.672C283.562 24.1093 284.074 24.5147 284.373 24.888C284.671 25.2613 284.821 25.736 284.821 26.312C284.821 27.208 284.522 27.928 283.925 28.472C283.327 29.0053 282.517 29.272 281.493 29.272ZM289.912 29.16C289.144 29.16 288.493 28.9893 287.96 28.648C287.437 28.296 287.043 27.8267 286.776 27.24C286.52 26.6427 286.392 25.976 286.392 25.24C286.392 24.504 286.52 23.8427 286.776 23.256C287.043 22.6587 287.437 22.1893 287.96 21.848C288.493 21.496 289.144 21.32 289.912 21.32C291.085 21.32 291.859 21.5067 292.232 21.88C292.413 22.0613 292.525 22.2853 292.568 22.552C292.611 22.808 292.632 23.2773 292.632 23.96H292.312C292.269 23.2987 292.061 22.8027 291.688 22.472C291.315 22.1307 290.829 21.96 290.232 21.96C289.464 21.96 288.883 22.264 288.488 22.872C288.104 23.48 287.912 24.2693 287.912 25.24C287.912 26.2107 288.104 27 288.488 27.608C288.883 28.216 289.464 28.52 290.232 28.52C290.776 28.52 291.224 28.4187 291.576 28.216C291.928 28.0027 292.253 27.6773 292.552 27.24L292.872 27.48C292.52 28.0773 292.104 28.5093 291.624 28.776C291.144 29.032 290.573 29.16 289.912 29.16ZM294.718 20.36C294.718 19.816 294.644 19.416 294.494 19.16C294.345 18.8933 294.046 18.76 293.598 18.76H293.278V18.44H294.718C295.113 18.44 295.406 18.4933 295.598 18.6C295.801 18.696 295.945 18.8773 296.03 19.144C296.116 19.4107 296.158 19.816 296.158 20.36V22.12C296.382 21.896 296.67 21.7093 297.022 21.56C297.385 21.4 297.79 21.32 298.238 21.32C299.038 21.32 299.689 21.5333 300.19 21.96C300.702 22.3867 300.958 23.1333 300.958 24.2V29H299.518V24.2C299.518 23.4533 299.348 22.9093 299.006 22.568C298.676 22.216 298.26 22.04 297.758 22.04C297.193 22.04 296.66 22.3227 296.158 22.888V29H294.718V20.36ZM306.435 29.16C305.71 29.16 305.08 28.9893 304.547 28.648C304.014 28.296 303.608 27.8213 303.331 27.224C303.054 26.6267 302.915 25.9653 302.915 25.24C302.915 24.5147 303.054 23.8533 303.331 23.256C303.608 22.6587 304.014 22.1893 304.547 21.848C305.08 21.496 305.71 21.32 306.435 21.32C307.16 21.32 307.79 21.496 308.323 21.848C308.856 22.1893 309.262 22.6587 309.539 23.256C309.816 23.8533 309.955 24.5147 309.955 25.24C309.955 25.9653 309.816 26.6267 309.539 27.224C309.262 27.8213 308.856 28.296 308.323 28.648C307.79 28.9893 307.16 29.16 306.435 29.16ZM306.435 28.52C306.83 28.52 307.176 28.376 307.475 28.088C307.784 27.8 308.019 27.4053 308.179 26.904C308.35 26.4027 308.435 25.848 308.435 25.24C308.435 24.632 308.35 24.0773 308.179 23.576C308.019 23.0747 307.784 22.68 307.475 22.392C307.176 22.104 306.83 21.96 306.435 21.96C306.04 21.96 305.688 22.104 305.379 22.392C305.08 22.68 304.846 23.0747 304.675 23.576C304.515 24.0773 304.435 24.632 304.435 25.24C304.435 25.848 304.515 26.4027 304.675 26.904C304.846 27.4053 305.08 27.8 305.379 28.088C305.688 28.376 306.04 28.52 306.435 28.52ZM312.055 20.36C312.055 19.816 311.981 19.416 311.831 19.16C311.682 18.8933 311.383 18.76 310.935 18.76H310.615V18.44H312.055C312.45 18.44 312.743 18.4933 312.935 18.6C313.138 18.696 313.282 18.8773 313.367 19.144C313.453 19.4107 313.495 19.816 313.495 20.36V29H312.055V20.36ZM317.818 29.16C317.477 29.16 317.13 29.0907 316.778 28.952C316.426 28.8027 316.122 28.5627 315.866 28.232C315.621 27.9013 315.498 27.464 315.498 26.92C315.498 26.1093 315.872 25.5333 316.618 25.192C317.376 24.8507 318.362 24.68 319.578 24.68H320.058C320.058 23.6347 319.914 22.92 319.626 22.536C319.338 22.152 318.922 21.96 318.378 21.96C317.898 21.96 317.514 22.0613 317.226 22.264C316.938 22.4667 316.736 22.8187 316.618 23.32H315.898C315.898 22.9573 315.92 22.6747 315.962 22.472C316.005 22.2587 316.117 22.0613 316.298 21.88C316.49 21.688 316.805 21.5493 317.242 21.464C317.69 21.368 318.176 21.32 318.698 21.32C319.562 21.32 320.245 21.5547 320.746 22.024C321.248 22.4827 321.498 23.368 321.498 24.68V29H320.698L320.138 28.28H320.058C319.866 28.5253 319.584 28.7333 319.21 28.904C318.837 29.0747 318.373 29.16 317.818 29.16ZM318.538 28.44C318.89 28.44 319.184 28.3547 319.418 28.184C319.653 28.0133 319.866 27.7787 320.058 27.48V25.32H319.578C318.789 25.32 318.165 25.4693 317.706 25.768C317.248 26.056 317.018 26.44 317.018 26.92C317.018 27.4107 317.162 27.7893 317.45 28.056C317.749 28.312 318.112 28.44 318.538 28.44ZM324.018 23.4C324.018 22.856 323.943 22.456 323.794 22.2C323.644 21.9333 323.346 21.8 322.898 21.8H322.738V21.48H324.018C324.423 21.48 324.727 21.5387 324.93 21.656C325.143 21.7627 325.292 21.944 325.378 22.2H325.458C325.65 21.9547 325.906 21.7467 326.226 21.576C326.556 21.4053 326.94 21.32 327.378 21.32C327.804 21.32 328.124 21.4 328.338 21.56C328.519 21.6987 328.706 21.9387 328.898 22.28L328.258 22.76C328.14 22.6 327.97 22.4827 327.746 22.408C327.522 22.3227 327.266 22.28 326.978 22.28C326.658 22.28 326.364 22.3547 326.098 22.504C325.831 22.6427 325.618 22.8347 325.458 23.08V29H324.018V23.4ZM332.921 29.16C331.694 29.16 330.868 28.9467 330.441 28.52C330.26 28.3387 330.148 28.136 330.105 27.912C330.062 27.6773 330.041 27.32 330.041 26.84H330.361C330.457 27.3733 330.686 27.7893 331.049 28.088C331.422 28.376 331.94 28.52 332.601 28.52C333.188 28.52 333.625 28.4187 333.913 28.216C334.212 28.0133 334.361 27.7413 334.361 27.4C334.361 27.0907 334.244 26.824 334.009 26.6C333.785 26.376 333.422 26.1627 332.921 25.96L331.961 25.56C331.321 25.304 330.841 25.0053 330.521 24.664C330.201 24.3227 330.041 23.9013 330.041 23.4C330.041 22.7493 330.286 22.2427 330.777 21.88C331.268 21.5067 331.902 21.32 332.681 21.32C333.854 21.32 334.654 21.5333 335.081 21.96C335.262 22.1413 335.374 22.344 335.417 22.568C335.46 22.792 335.481 23.1493 335.481 23.64H335.161C335.076 23.1067 334.852 22.696 334.489 22.408C334.126 22.1093 333.63 21.96 333.001 21.96C332.5 21.96 332.105 22.0667 331.817 22.28C331.54 22.4827 331.401 22.7493 331.401 23.08C331.401 23.6347 331.828 24.088 332.681 24.44L333.641 24.84C334.366 25.1387 334.894 25.4587 335.225 25.8C335.556 26.1307 335.721 26.5573 335.721 27.08C335.721 27.7307 335.46 28.2427 334.937 28.616C334.414 28.9787 333.742 29.16 332.921 29.16ZM337.71 20.36C337.71 19.816 337.635 19.416 337.486 19.16C337.336 18.8933 337.038 18.76 336.59 18.76H336.27V18.44H337.71C338.104 18.44 338.398 18.4933 338.59 18.6C338.792 18.696 338.936 18.8773 339.022 19.144C339.107 19.4107 339.15 19.816 339.15 20.36V22.12C339.374 21.896 339.662 21.7093 340.014 21.56C340.376 21.4 340.782 21.32 341.23 21.32C342.03 21.32 342.68 21.5333 343.182 21.96C343.694 22.3867 343.95 23.1333 343.95 24.2V29H342.51V24.2C342.51 23.4533 342.339 22.9093 341.998 22.568C341.667 22.216 341.251 22.04 340.75 22.04C340.184 22.04 339.651 22.3227 339.15 22.888V29H337.71V20.36ZM347.186 20.52C346.941 20.52 346.728 20.4187 346.546 20.216C346.376 20.0133 346.29 19.7733 346.29 19.496C346.29 19.272 346.354 19.096 346.482 18.968C346.621 18.84 346.802 18.776 347.026 18.776C347.272 18.776 347.48 18.8773 347.65 19.08C347.832 19.2827 347.922 19.5227 347.922 19.8C347.922 20.024 347.853 20.2 347.714 20.328C347.586 20.456 347.41 20.52 347.186 20.52ZM346.578 23.4C346.578 22.856 346.504 22.456 346.354 22.2C346.205 21.9333 345.906 21.8 345.458 21.8H345.138V21.48H346.578C346.973 21.48 347.266 21.5333 347.458 21.64C347.661 21.736 347.805 21.9173 347.89 22.184C347.976 22.4507 348.018 22.856 348.018 23.4V29H346.578V23.4ZM350.676 23.4C350.676 22.856 350.601 22.456 350.452 22.2C350.303 21.9333 350.004 21.8 349.556 21.8H349.236V21.48H350.676C351.081 21.48 351.385 21.5387 351.588 21.656C351.801 21.7627 351.951 21.944 352.036 22.2H352.116C352.308 21.9547 352.58 21.7467 352.932 21.576C353.284 21.4053 353.732 21.32 354.276 21.32C355.193 21.32 355.903 21.6933 356.404 22.44C356.905 23.176 357.156 24.1093 357.156 25.24C357.156 26.3813 356.895 27.32 356.372 28.056C355.86 28.792 355.108 29.16 354.116 29.16C353.711 29.16 353.353 29.1173 353.044 29.032C352.735 28.9467 352.425 28.8293 352.116 28.68V32.04H350.676V23.4ZM353.636 28.52C354.319 28.52 354.82 28.2213 355.14 27.624C355.471 27.0267 355.636 26.232 355.636 25.24C355.636 24.2587 355.481 23.4693 355.172 22.872C354.863 22.264 354.404 21.96 353.796 21.96C353.081 21.96 352.521 22.28 352.116 22.92V28.04C352.436 28.1893 352.713 28.3067 352.948 28.392C353.183 28.4773 353.412 28.52 353.636 28.52ZM364.869 19.08C363.536 19.08 362.869 19.6933 362.869 20.92H362.549V19.72C362.549 18.8667 363.003 18.44 363.909 18.44H371.349V19.08H367.749V29H366.309V19.08H364.869ZM374.406 29.16C373.681 29.16 373.068 28.9893 372.566 28.648C372.065 28.296 371.686 27.8267 371.43 27.24C371.174 26.6427 371.046 25.976 371.046 25.24C371.046 24.5147 371.174 23.8533 371.43 23.256C371.686 22.6587 372.054 22.1893 372.534 21.848C373.025 21.496 373.596 21.32 374.246 21.32C375.324 21.32 376.124 21.624 376.646 22.232C377.18 22.8293 377.446 23.6987 377.446 24.84L377.414 25.48H372.566C372.566 26.376 372.758 27.1067 373.142 27.672C373.526 28.2373 374.054 28.52 374.726 28.52C375.228 28.52 375.649 28.4133 375.99 28.2C376.342 27.9867 376.668 27.6667 376.966 27.24L377.286 27.48C376.934 28.0667 376.524 28.4933 376.054 28.76C375.585 29.0267 375.036 29.16 374.406 29.16ZM375.926 24.84C375.926 23.9013 375.788 23.1867 375.51 22.696C375.233 22.2053 374.812 21.96 374.246 21.96C373.926 21.96 373.638 22.088 373.382 22.344C373.126 22.5893 372.924 22.9307 372.774 23.368C372.636 23.8053 372.566 24.296 372.566 24.84H375.926ZM381.963 29.16C380.736 29.16 379.91 28.9467 379.483 28.52C379.302 28.3387 379.19 28.136 379.147 27.912C379.104 27.6773 379.083 27.32 379.083 26.84H379.403C379.499 27.3733 379.728 27.7893 380.091 28.088C380.464 28.376 380.982 28.52 381.643 28.52C382.23 28.52 382.667 28.4187 382.955 28.216C383.254 28.0133 383.403 27.7413 383.403 27.4C383.403 27.0907 383.286 26.824 383.051 26.6C382.827 26.376 382.464 26.1627 381.963 25.96L381.003 25.56C380.363 25.304 379.883 25.0053 379.563 24.664C379.243 24.3227 379.083 23.9013 379.083 23.4C379.083 22.7493 379.328 22.2427 379.819 21.88C380.31 21.5067 380.944 21.32 381.723 21.32C382.896 21.32 383.696 21.5333 384.123 21.96C384.304 22.1413 384.416 22.344 384.459 22.568C384.502 22.792 384.523 23.1493 384.523 23.64H384.203C384.118 23.1067 383.894 22.696 383.531 22.408C383.168 22.1093 382.672 21.96 382.043 21.96C381.542 21.96 381.147 22.0667 380.859 22.28C380.582 22.4827 380.443 22.7493 380.443 23.08C380.443 23.6347 380.87 24.088 381.723 24.44L382.683 24.84C383.408 25.1387 383.936 25.4587 384.267 25.8C384.598 26.1307 384.763 26.5573 384.763 27.08C384.763 27.7307 384.502 28.2427 383.979 28.616C383.456 28.9787 382.784 29.16 381.963 29.16ZM388.975 29.16C388.378 29.16 387.909 28.9893 387.567 28.648C387.226 28.3067 387.055 27.784 387.055 27.08V22.12H385.935V21.48H387.055V20.04L387.855 19.08H388.495V21.48H390.415V22.12H388.495V27.08C388.495 28.04 388.869 28.52 389.615 28.52C389.871 28.52 390.085 28.4933 390.255 28.44C390.437 28.3867 390.623 28.3067 390.815 28.2L390.975 28.52C390.73 28.7013 390.458 28.856 390.159 28.984C389.861 29.1013 389.466 29.16 388.975 29.16Z" fill="#4F4F4F"/>
<path d="M435.437 29.72C434.669 29.72 434.071 29.6027 433.645 29.368C433.218 29.1333 432.914 28.7707 432.733 28.28C432.562 27.7787 432.477 27.112 432.477 26.28V20.12L428.477 29H428.157L423.997 19.96V29H423.357V18.44H424.877L428.717 26.76L432.477 18.44H433.917V26.28C433.917 27.272 434.039 28.04 434.285 28.584C434.541 29.128 434.925 29.4 435.437 29.4V29.72ZM439.803 29.16C439.077 29.16 438.448 28.9893 437.915 28.648C437.381 28.296 436.976 27.8213 436.699 27.224C436.421 26.6267 436.283 25.9653 436.283 25.24C436.283 24.5147 436.421 23.8533 436.699 23.256C436.976 22.6587 437.381 22.1893 437.915 21.848C438.448 21.496 439.077 21.32 439.803 21.32C440.528 21.32 441.157 21.496 441.691 21.848C442.224 22.1893 442.629 22.6587 442.907 23.256C443.184 23.8533 443.323 24.5147 443.323 25.24C443.323 25.9653 443.184 26.6267 442.907 27.224C442.629 27.8213 442.224 28.296 441.691 28.648C441.157 28.9893 440.528 29.16 439.803 29.16ZM439.803 28.52C440.197 28.52 440.544 28.376 440.843 28.088C441.152 27.8 441.387 27.4053 441.547 26.904C441.717 26.4027 441.803 25.848 441.803 25.24C441.803 24.632 441.717 24.0773 441.547 23.576C441.387 23.0747 441.152 22.68 440.843 22.392C440.544 22.104 440.197 21.96 439.803 21.96C439.408 21.96 439.056 22.104 438.747 22.392C438.448 22.68 438.213 23.0747 438.043 23.576C437.883 24.0773 437.803 24.632 437.803 25.24C437.803 25.848 437.883 26.4027 438.043 26.904C438.213 27.4053 438.448 27.8 438.747 28.088C439.056 28.376 439.408 28.52 439.803 28.52ZM445.487 23.4C445.487 22.856 445.412 22.456 445.263 22.2C445.114 21.9333 444.815 21.8 444.367 21.8H444.207V21.48H445.487C445.892 21.48 446.196 21.5387 446.399 21.656C446.612 21.7627 446.762 21.944 446.847 22.2H446.927C447.119 21.9547 447.375 21.7467 447.695 21.576C448.026 21.4053 448.41 21.32 448.847 21.32C449.274 21.32 449.594 21.4 449.807 21.56C449.988 21.6987 450.175 21.9387 450.367 22.28L449.727 22.76C449.61 22.6 449.439 22.4827 449.215 22.408C448.991 22.3227 448.735 22.28 448.447 22.28C448.127 22.28 447.834 22.3547 447.567 22.504C447.3 22.6427 447.087 22.8347 446.927 23.08V29H445.487V23.4ZM454.666 29.16C453.94 29.16 453.327 28.9893 452.826 28.648C452.324 28.296 451.946 27.8267 451.69 27.24C451.434 26.6427 451.306 25.976 451.306 25.24C451.306 24.5147 451.434 23.8533 451.69 23.256C451.946 22.6587 452.314 22.1893 452.794 21.848C453.284 21.496 453.855 21.32 454.506 21.32C455.583 21.32 456.383 21.624 456.906 22.232C457.439 22.8293 457.706 23.6987 457.706 24.84L457.674 25.48H452.826C452.826 26.376 453.018 27.1067 453.402 27.672C453.786 28.2373 454.314 28.52 454.986 28.52C455.487 28.52 455.908 28.4133 456.25 28.2C456.602 27.9867 456.927 27.6667 457.226 27.24L457.546 27.48C457.194 28.0667 456.783 28.4933 456.314 28.76C455.844 29.0267 455.295 29.16 454.666 29.16ZM456.186 24.84C456.186 23.9013 456.047 23.1867 455.77 22.696C455.492 22.2053 455.071 21.96 454.506 21.96C454.186 21.96 453.898 22.088 453.642 22.344C453.386 22.5893 453.183 22.9307 453.034 23.368C452.895 23.8053 452.826 24.296 452.826 24.84H456.186Z" fill="#4F4F4F"/>
<g clip-path="url(#clip1_587_907)">
<path d="M475.981 23.379L479.694 19.6665L480.754 20.727L475.981 25.5L471.208 20.727L472.269 19.6665L475.981 23.379Z" fill="#4F4F4F"/>
</g>
<defs>
<clipPath id="clip0_587_907">
<rect width="18" height="18" fill="white" transform="matrix(0 1 -1 0 94.9807 13.5)"/>
</clipPath>
<clipPath id="clip1_587_907">
<rect width="18" height="18" fill="white" transform="matrix(0 1 -1 0 484.981 13.5)"/>
</clipPath>
</defs>
</svg>
